# xmcd
#
# Track frame offsets: 
#        150
#        18779
#        55831
#        78159
#        102561
#        121414
#        140124
#        156526
#        179701
#        199149
#        215580
#        240387
#        259866
#        278522
#        299916
#        321128
#        333966
#
# Disc length: 4775 seconds
#
# Revision: 1
# Processed by: cddbd v1.5.2PL0 Copyright (c) Steve Scherf et al.
# Submitted via: ExactAudioCopy v1.3
#
DISCID=0812a511
DTITLE=Various Artist - Akella Presents - vol.108 - Women's Blues  CD
DTITLE=2
DYEAR=2017
DGENRE=Blues
TTITLE0=Bridget Kelly Band - I'll Take The Blues
TTITLE1=Cee Cee James - Low Down Where The Snakes Crawl
TTITLE2=Rita Chiarelli - Horse Of A Different Colour
TTITLE3=Truth Jones - You Know Me Too Well
TTITLE4=Karen Lovely - Sunny Weather
TTITLE5=Etta James - Spoonful
TTITLE6=Shelly Bonet - Can't Fight What You Can't See
TTITLE7=Thornetta Davis - I Gotta Sang the Blues
TTITLE8=Diane Blue - Imagination
TTITLE9=Debbie Davies - Talk Real Slow
TTITLE10=Liz Mandville - Dog No More
TTITLE11=Janiva Magness - I Can Tell
TTITLE12=Miss Freddye - These Are My Blues  These Are My Blues
TTITLE13=Joanne Le Blanc - I'm a Woman
TTITLE14=Deb Ryder - Grit Grease and Tears
TTITLE15=Zee Bee - Make My Day
TTITLE16=Ina Forsman - Bubbly Kisses
EXTD=
EXTT0=
EXTT1=
EXTT2=
EXTT3=
EXTT4=
EXTT5=
EXTT6=
EXTT7=
EXTT8=
EXTT9=
EXTT10=
EXTT11=
EXTT12=
EXTT13=
EXTT14=
EXTT15=
EXTT16=
PLAYORDER=
